<svg width="116" height="104" viewBox="0 0 116 104" fill="none" xmlns="http://www.w3.org/2000/svg">
<g clip-path="url(#clip0_344_14372)">
<path d="M45.41 16.1198C45.8965 13.7735 46.2008 11.393 46.32 8.99977C46.32 5.17977 44.32 4.08977 38.19 4.08977C33.64 4.08977 30.12 4.14977 28.85 4.20977L28.49 0.509766C31.28 0.629766 77.55 1.50977 80.28 1.50977C100.77 1.50977 113.51 9.14977 113.51 20.9098C113.51 33.2298 103.32 41.5298 89.07 45.2298V45.3498C105.5 47.2298 115.27 55.9698 115.27 68.7598C115.27 91.0798 91.27 102.05 71.73 102.05C59.05 102.05 49.73 92.2298 44.8 88.7698C41.1553 93.4368 36.487 97.2039 31.1554 99.7804C25.8238 102.357 19.9714 103.674 14.05 103.63C5.50004 103.63 0.290039 99.3198 0.290039 92.6298C0.290039 82.7498 8.90004 76.8698 19.39 76.8698C24.574 76.8964 29.7103 77.862 34.55 79.7198L45.41 16.1198ZM18.78 79.8598C10.29 79.8598 3.38004 84.2898 3.38004 91.9298C3.38004 97.1998 7.69004 100.6 14.66 100.6C23.39 100.6 30.85 93.5998 33.82 82.8298C29.0743 80.7836 23.9473 79.7712 18.78 79.8598ZM72.57 97.8598C86.22 97.8598 96.77 85.8598 96.77 66.3198C96.77 55.0598 91.19 47.9998 81.61 47.9998C77.97 47.9998 73.67 47.6998 68.61 47.5198C67.61 47.4598 66.85 46.9098 66.85 45.9398C66.8253 45.4646 66.9708 44.9961 67.2604 44.6186C67.55 44.241 67.9647 43.979 68.43 43.8798L72.13 43.9398C78.359 43.7757 84.2781 41.1874 88.6278 36.7256C92.9774 32.2639 95.4144 26.2809 95.42 20.0498C95.42 10.5898 88.81 4.57977 79.77 4.51977C78.44 4.51977 74.07 4.45977 68.43 4.33977C67.22 12.2798 62.49 29.9298 61.43 34.7198L53.91 68.7198C52.7503 74.8194 50.3987 80.6303 46.99 85.8198C55.41 90.7098 60.08 97.8098 72.57 97.8098V97.8598Z" fill="black"/>
</g>
<defs>
<clipPath id="clip0_344_14372">
<rect width="116" height="104" fill="white"/>
</clipPath>
</defs>
</svg>
