<svg width="411" height="104" viewBox="0 0 411 104" fill="none" xmlns="http://www.w3.org/2000/svg">
<g clip-path="url(#clip0_344_14372)">
<path d="M45.41 16.1198C45.8965 13.7735 46.2008 11.393 46.32 8.99977C46.32 5.17977 44.32 4.08977 38.19 4.08977C33.64 4.08977 30.12 4.14977 28.85 4.20977L28.49 0.509766C31.28 0.629766 77.55 1.50977 80.28 1.50977C100.77 1.50977 113.51 9.14977 113.51 20.9098C113.51 33.2298 103.32 41.5298 89.07 45.2298V45.3498C105.5 47.2298 115.27 55.9698 115.27 68.7598C115.27 91.0798 91.27 102.05 71.73 102.05C59.05 102.05 49.73 92.2298 44.8 88.7698C41.1553 93.4368 36.487 97.2039 31.1554 99.7804C25.8238 102.357 19.9714 103.674 14.05 103.63C5.50004 103.63 0.290039 99.3198 0.290039 92.6298C0.290039 82.7498 8.90004 76.8698 19.39 76.8698C24.574 76.8964 29.7103 77.862 34.55 79.7198L45.41 16.1198ZM18.78 79.8598C10.29 79.8598 3.38004 84.2898 3.38004 91.9298C3.38004 97.1998 7.69004 100.6 14.66 100.6C23.39 100.6 30.85 93.5998 33.82 82.8298C29.0743 80.7836 23.9473 79.7712 18.78 79.8598ZM72.57 97.8598C86.22 97.8598 96.77 85.8598 96.77 66.3198C96.77 55.0598 91.19 47.9998 81.61 47.9998C77.97 47.9998 73.67 47.6998 68.61 47.5198C67.61 47.4598 66.85 46.9098 66.85 45.9398C66.8253 45.4646 66.9708 44.9961 67.2604 44.6186C67.55 44.241 67.9647 43.979 68.43 43.8798L72.13 43.9398C78.359 43.7757 84.2781 41.1874 88.6278 36.7256C92.9774 32.2639 95.4144 26.2809 95.42 20.0498C95.42 10.5898 88.81 4.57977 79.77 4.51977C78.44 4.51977 74.07 4.45977 68.43 4.33977C67.22 12.2798 62.49 29.9298 61.43 34.7198L53.91 68.7198C52.7503 74.8194 50.3987 80.6303 46.99 85.8198C55.41 90.7098 60.08 97.8098 72.57 97.8098V97.8598Z" fill="black"/>
<path d="M160.63 91.8697C159.088 94.8222 156.76 97.2909 153.903 99.0028C151.046 100.715 147.771 101.603 144.44 101.57C136.74 101.57 129.58 96.7196 129.58 87.1396C129.58 81.7396 130.86 75.8596 131.65 71.6096L134.56 55.1197C134.839 53.5573 134.999 51.9761 135.04 50.3896C135.04 47.6596 134.31 46.5096 133.22 46.5096C131.77 46.5096 129.58 48.7496 127.7 52.3896L124.19 59.2396L123.1 58.6897L126.61 51.8396C130.61 44.0196 136.61 42.6196 143.29 42.6196H157.72C157.12 49.2296 151.9 69.4297 150.51 74.6197L147.51 85.2997C147.177 86.4409 146.995 87.621 146.97 88.8096C146.97 92.6996 149.39 94.5097 152.24 94.5097C154.029 94.4099 155.759 93.8346 157.251 92.8431C158.744 91.8517 159.945 90.48 160.73 88.8697L164.92 80.7496L165.92 81.3496L160.63 91.8697ZM150 1.38965C151.859 1.38965 153.677 1.94095 155.222 2.97383C156.768 4.00672 157.973 5.4748 158.685 7.19242C159.396 8.91005 159.582 10.8001 159.219 12.6235C158.857 14.4469 157.962 16.1218 156.647 17.4365C155.332 18.7511 153.657 19.6463 151.834 20.009C150.011 20.3717 148.12 20.1856 146.403 19.4741C144.685 18.7627 143.217 17.5578 142.184 16.012C141.151 14.4662 140.6 12.6488 140.6 10.7896C140.6 8.29661 141.59 5.90569 143.353 4.14284C145.116 2.38 147.507 1.38965 150 1.38965Z" fill="black"/>
<path d="M203 54.2704C203 55.2704 202.94 55.9104 202.88 56.9404C208.34 46.1404 220.35 36.9404 229.69 36.9404C237.1 37.0004 242 41.1104 242 47.2904C242 53.0604 236.17 57.2404 231.75 57.2404C231.086 57.2505 230.426 57.1281 229.81 56.8804C229.1 49.0004 225.89 44.8104 221 44.8104C213.24 44.8104 203.17 58.6904 199.17 74.6404L192.68 100.17C192.62 100.6 191.41 100.84 191.41 100.84L183.53 100.96C179.46 100.96 175.83 100.6 175.83 99.5104C175.83 99.3904 175.89 99.1404 175.89 98.9004L183.22 55.1204C183.487 53.5979 183.631 52.0562 183.65 50.5104C183.65 47.6004 182.92 46.3804 181.83 46.3804C180.31 46.3804 178.19 48.5704 176.37 52.1504L172.82 59.0004L171.73 58.4504L175.25 51.6004C179.25 43.7804 185.25 42.0204 191.93 42.0204C200.54 42.0004 203 47.4804 203 54.2704Z" fill="black"/>
<path d="M244.57 82.8901C244.57 76.8301 253.57 72.8201 256.94 72.8201C258.51 89.6801 264.15 99.0801 282.1 99.0801C299.87 99.0801 311.7 91.1401 311.7 79.1901C311.7 60.0301 257.91 59.9701 257.91 33.1901C257.91 11.8501 273.25 0.330078 301.69 0.330078C314.06 0.330078 336.14 4.63008 336.14 19.5501C336.14 25.6101 327.14 29.6201 323.77 29.6201C322.19 12.7601 319.04 3.36008 301.09 3.36008C286.83 3.36008 277.31 10.9401 277.31 22.3601C277.31 43.1001 330.62 46.3601 330.62 71.3601C330.62 89.7901 310.91 102.1 281.44 102.1C268.82 102.11 244.57 98.0501 244.57 82.8901Z" fill="black"/>
<path d="M361.67 83.1303C361.67 93.7503 366.58 97.9303 377.74 97.9303C386.66 97.9303 397.03 92.8403 401.88 86.9303L404.12 88.9303C396.72 97.1703 385.38 102.02 372.22 102.02C354.03 102.02 342.93 92.6203 342.93 77.9503C342.93 53.9503 360.64 41.3203 384.05 41.3203C401.27 41.3203 410.37 46.5403 410.37 56.3203C410.37 72.6303 387.69 80.9403 361.73 81.1203C361.67 81.8603 361.67 82.4703 361.67 83.1303ZM393.57 54.7503C393.57 47.9603 390.11 44.3803 383.44 44.3803C372.77 44.3803 363.44 60.6403 361.91 78.1603C381.38 78.1603 393.57 71.3703 393.57 54.7503Z" fill="black"/>
<path d="M393.17 1.8398L397.98 5.8398C398.202 5.98258 398.381 6.1823 398.499 6.41805C398.617 6.65379 398.669 6.9169 398.65 7.1798C398.65 7.5798 398.38 7.8398 398.12 8.2398L396.51 10.2398L377.51 25.2398L375.64 23.6298L390.64 1.9698C390.807 1.76841 391.014 1.60458 391.248 1.48909C391.483 1.37361 391.739 1.3091 392 1.2998C392.433 1.36829 392.837 1.5552 393.17 1.8398Z" fill="black"/>
</g>
<defs>
<clipPath id="clip0_344_14372">
<rect width="411" height="104" fill="white"/>
</clipPath>
</defs>
</svg>
