<svg width="658" height="737" viewBox="0 0 658 737" fill="none" xmlns="http://www.w3.org/2000/svg">
<g clip-path="url(#clip0_106_5829)">
<path fill-rule="evenodd" clip-rule="evenodd" d="M314.829 0.28131C325.372 -0.237317 340.734 -0.0198736 351.107 0.777404C438.412 7.07031 519.526 48.1903 576.206 114.891C633.71 181.583 662.535 268.298 656.392 356.147C651.379 426.236 624.299 492.941 579.031 546.689C564.722 563.537 552.248 575.33 535.694 589.518C535.67 591.802 535.733 594.612 535.453 596.848C533.835 609.775 522.539 620.936 510.128 623.823C501.731 625.74 492.908 624.21 485.645 619.569C477.653 614.489 473.095 607.081 471.12 597.949C456.043 611.191 437.369 630.642 422.712 645.052C393.81 673.273 365.096 701.678 336.566 730.272C332.244 734.676 329.477 739.572 323.977 734.145C312.046 722.371 300.133 710.578 288.205 698.8L221.003 632.733C209.398 621.168 197.68 609.718 185.85 598.384C184.09 604.57 181.873 609.534 177.434 614.291C171.414 620.728 163.051 624.466 154.239 624.659C133.896 625.05 121.031 608.718 120.808 589.3C114.875 583.809 108.377 578.565 102.552 572.91C94.3573 564.952 86.2924 556.331 78.8628 547.673C32.9714 493.418 5.61322 425.926 0.778809 355.03C-5.28884 266.437 24.2857 179.091 82.9302 112.409C131.271 56.7761 196.962 19.0705 269.382 5.38776C283.526 2.78586 300.519 1.2732 314.829 0.28131ZM323.538 601.768C305.238 601.724 284.965 601.328 266.842 601.758C266.789 603.361 267.23 604.226 267.954 605.655C278.657 626.826 289.606 648.026 300.211 669.245C305.163 679.169 310.181 689.064 315.263 698.92C316.605 701.567 321.746 712.5 323.523 713.765L323.538 601.768ZM390.488 601.802C372.331 601.667 351.078 601.314 333.046 601.734C333.322 638.643 332.452 676.812 333.404 713.532C336.77 708.095 340.323 700.706 343.25 694.911C346.413 688.638 350.329 681.448 353.178 675.098L375.494 631.598C380.308 622.253 386.282 611.291 390.488 601.802ZM401.248 601.73C395.004 612.812 389.537 624.315 383.689 635.615L344.737 712.035C354.149 702.923 365.633 692.328 374.562 683.008L432.506 626.387C439.904 619.163 450.943 609.123 457.656 601.807L401.248 601.73ZM255.288 601.802C237.027 602.372 217.75 601.662 199.358 601.826C205.48 608.775 213.887 616.386 220.625 622.958L260.964 662.532C267.442 668.887 276.722 677.493 282.654 683.964L300.002 700.909C303.301 704.111 307.918 708.322 310.827 711.746C307.226 703.252 256.614 602.508 255.288 601.802ZM362.334 566.655C354.622 574.957 347.002 583.345 339.473 591.811L364.537 591.854L386.446 591.839C380.192 584.977 369.027 572.856 362.334 566.655ZM294.286 566.685C286.268 574.962 278.356 583.344 270.552 591.824L294.032 591.849L317.076 591.834C314.83 588.897 297.373 569.408 294.286 566.685ZM224.774 566.617C216.537 574.363 206.48 583.668 198.81 591.829L221.95 591.844L247.265 591.829C245.022 588.792 227.282 567.802 224.774 566.617ZM431.69 566.134C424.287 574.841 416.382 583.123 408.945 591.815L435.066 591.839L457.844 591.82C451.764 585.499 438.064 571.451 431.69 566.134ZM361.49 24.8077C349.62 23.5444 332.186 22.5494 320.196 23.211C233.429 26.6435 160.102 60.6818 101.125 124.61C53.655 176.959 25.0346 243.665 19.8071 314.138C12.6905 410.545 53.0197 507.354 125.207 571.156C126.348 572.166 127.303 573.073 128.564 573.957C131.563 571.156 133.737 568.998 137.214 566.945C151.096 558.746 168.527 561.764 178.772 574.242C182.931 579.308 184.519 583.509 186.445 589.773L233.991 543.649C241.455 536.396 251.098 526.506 258.796 519.799C285.283 519.374 312.057 519.895 338.581 519.648C357.752 519.668 378.846 519.267 397.925 519.735C421.868 542.847 446.481 567.713 470.641 590.366C473.017 580.225 476.963 572.952 486.104 567.244C493.526 562.637 502.499 561.218 510.984 563.304C518.764 565.206 522.767 568.562 528.403 573.908C540.335 564.337 556.528 547.179 566.239 535.28C605.335 488.144 629.693 430.542 636.275 369.657C645.102 286.322 620.344 202.904 567.475 137.88C516.436 74.4734 442.387 33.8266 361.49 24.8077ZM261.235 530.838C253.808 538.878 245.239 546.233 237.514 554.018C235.565 555.983 233.378 558.093 231.263 559.87C239.397 569.301 249.961 581.239 258.607 590.183C267.439 580.694 280.041 568.95 287.908 559.668C281.346 552.603 267.721 536.841 261.235 530.838ZM395.172 530.887C387.074 540.386 377.348 550.531 368.859 559.837C376.634 567.94 384.394 576.068 392.265 584.079C393.482 585.32 397.413 590.221 398.693 589.651C405.628 582.065 419.671 567.549 425.475 559.895C418.246 553.651 411.109 545.712 404.068 539.135C402.296 537.483 396.94 532.109 395.172 530.887ZM328.217 531.784C319.964 540.433 309.44 551.657 300.932 559.929C303.403 563.188 326.517 588.598 328.618 589.661L355.767 559.953C352.126 556.568 329.77 532.251 328.217 531.784ZM339.72 529.718C344.945 535.465 356.593 548.015 362.374 553.221L372.693 542.172C376.522 538.048 380.313 533.89 384.075 529.703L339.72 529.718ZM273.093 529.689C276.831 534.571 289.976 548.913 294.439 553.027C298.188 549.362 301.884 545.648 305.526 541.882C309.411 537.903 313.519 533.822 317.277 529.746L273.093 529.689Z" fill="black"/>
<path d="M316.12 151.3C358.501 151.258 447.303 144.406 463.877 198.676C467.803 211.528 464.21 229.143 457.16 240.665C442.769 264.169 417.373 274.877 391.561 280.838C427.963 286.333 466.663 301.028 471.511 343.642C475.152 375.63 455.894 405.561 430.261 423.125C409.347 437.453 384.549 445.449 359.168 447.767C352.151 447.845 345.887 448.053 338.871 447.454C306.832 444.73 290.344 426.206 265.784 408.975C256.889 419.314 249.821 426.399 238.213 434.072C216.836 448.173 189.479 455.86 163.994 450.978C144.225 447.187 132.119 429.035 137.133 409.356C145.305 377.296 183.508 370.034 211.763 375.003C219.779 376.413 227.762 378.687 235.667 380.634C239.32 364.867 242.492 343.145 245.276 326.979L259.807 244.426L267.08 203.64C269.234 191.656 277.69 163.721 258.856 161.234C245.834 159.515 230.252 160.245 216.971 160.303L217.255 151.346L316.12 151.3ZM233.13 391.123C220.56 386.11 203.261 382.537 189.822 383.329C176.42 384.092 162.902 387.661 153.37 397.662C143.896 407.605 142.885 427.279 153.926 436.454C161.301 442.582 172.099 444.229 181.384 443.321C183.827 443.084 186.257 442.727 188.667 442.259C215.97 434.802 224.57 415.949 233.13 391.123ZM412.862 201.273C409.308 165.436 376.779 159.385 346.829 161.136C337.842 162.291 333.351 166.859 331.047 175.66C327.498 189.242 324.837 203.125 321.819 216.837L302.442 303.713C296.4 331.194 292.084 360.467 279.92 386.017C277.644 390.793 274.902 395.28 272.54 400.022C293.634 414.336 310.661 432.329 337.495 435.072C362.543 437.631 385.428 427.866 399.896 406.908C415.489 382.391 419.333 352.731 414.33 324.226C412.403 313.268 404.856 301.776 395.357 296.016C374.684 283.391 351.73 287.612 329.28 287.963L329.251 278.375C335.548 277.807 341.725 277.902 347.799 277.294C366.734 275.396 385.187 267.269 397.535 252.411C409.236 238.079 414.75 219.679 412.862 201.273Z" fill="black"/>
</g>
<defs>
<clipPath id="clip0_106_5829">
<rect width="658" height="737" fill="white"/>
</clipPath>
</defs>
</svg>
