<svg width="1000" height="329" viewBox="0 0 1000 329" fill="none" xmlns="http://www.w3.org/2000/svg">
<path d="M275.513 17.8362C329.519 15.2753 370.419 54.9006 373.567 107.918C375.823 145.929 362.396 182.155 328.894 202.847C313.629 212.275 300.171 215.014 282.626 216.297L282.169 216.309C223.957 217.527 184.203 176.557 182.695 119.154C181.24 63.7416 218.917 18.7733 275.513 17.8362ZM283.991 208.844C335.876 202.657 349.131 141.961 343.763 98.4893C338.791 58.2085 317.926 22.2369 272.31 25.5563C255.494 27.4545 242.77 33.7798 232.107 47.2344C202.431 84.6788 203.894 166.009 242.551 196.796C254.277 206.04 269.137 210.36 283.991 208.844Z" fill="black"/>
<path d="M410.159 21.5818L449.462 21.4814C472.384 21.3979 498.584 19.9966 518.887 32.4453C529.082 38.6544 536.362 48.696 539.092 60.3196C542.256 73.6021 539.98 87.5982 532.768 99.1924C523.203 114.439 508.506 120.182 491.958 123.917C512.08 152.293 534.502 185.093 555.898 212.363C547.612 213.064 532.202 212.907 523.818 212.624C523.096 211.821 522.178 210.599 521.475 209.727C506.182 187.27 489.892 165.283 474.533 142.85C470.856 137.479 466.871 131.594 462.837 126.515C454.791 126.15 444.766 126.427 436.574 126.438L436.52 212.456C427.98 212.746 418.739 212.906 410.212 212.427C409.671 191.038 410.147 167.696 410.148 146.147L410.159 21.5818ZM436.555 118.775C459.339 119.212 481.668 122.64 499.668 107.456C516.406 91.0551 516.919 57.9284 500.679 41.0886C485.368 25.2151 457.722 29.266 437.73 28.9733L436.744 29.4044C436.299 31.4048 436.545 49.9255 436.543 53.5611L436.555 118.775Z" fill="black"/>
<path d="M744.751 21.5938C753.335 21.4872 761.919 21.4656 770.508 21.5289L770.498 212.712C763.325 212.803 750.938 213.143 744.097 212.411C743.555 162.132 744.043 111.011 744.038 60.6473C743.887 55.5992 744.082 50.2966 744.194 45.2265C735.488 64.5584 726.67 87.3188 718.447 107.165C703.579 142.969 688.897 178.849 674.399 214.806C672.505 214.891 670.615 215.031 668.726 215.227C665.967 210.044 662.939 202.855 660.483 197.386L643.325 158.252C626.87 121.124 610.771 83.839 595.029 46.4014C595.61 69.5376 595.259 93.8585 595.259 117.089L595.161 212.586C592.544 212.64 589.805 212.555 587.178 212.512L586.968 21.7174C594.292 21.5422 605.352 21.2063 612.529 21.769L654.307 118.062C662.91 137.815 671.172 157.765 680.171 177.343C684.639 165.873 690.493 153.218 695.273 141.522L744.751 21.5938Z" fill="black"/>
<path d="M882.661 18.5457C887.397 18.3606 887.397 17.8031 889.346 22.2396C897.832 41.5624 906.416 60.8385 914.932 80.1469L973.564 212.254C964.805 212.627 952.456 213.032 943.838 212.443C942.686 210.019 941.494 207.198 940.474 204.709C933.359 187.288 924.692 170.009 917.91 152.497L890.381 152.44C872.095 152.447 852.744 152.144 834.546 152.626C826.03 172.611 817.671 192.662 809.463 212.776C806.323 212.79 803.096 212.603 799.951 212.463C804.687 200.194 811.719 184.753 816.987 172.312L864.233 61.7171C870.293 47.4571 876.973 32.9258 882.661 18.5457ZM837.891 144.897C850.708 145.011 863.525 145.053 876.343 145.023C889.062 145.008 901.958 145.102 914.663 144.939C910.132 134.78 877.305 57.4011 875.659 55.9438L851.694 112.514C847.505 122.291 841.411 135.179 837.891 144.897Z" fill="black"/>
<path d="M26.1802 21.6362C30.4072 21.2884 37.9275 21.4853 42.3436 21.4845L72.11 21.4863L165.682 21.5225C165.713 32.0394 165.914 51.8168 165.447 63.1301C165.074 63.5721 164.757 63.9472 164.498 64.2549L165.062 63.9038L164.137 63.7201C162.933 60.4049 163.224 52.5226 163.241 48.8058C160.069 48.8335 151.194 49.2263 148.666 47.7337L149.099 47.1795C153.954 46.0783 158.135 46.3525 163.108 46.3635C163.301 40.6462 163.216 34.8326 163.189 29.1048C149.355 28.1732 127.522 29.0792 113.046 28.9085C101.711 28.7748 76.401 28.3111 66.0274 29.3876C65.6329 56.7883 66.023 85.2791 66.025 112.763C71.7062 112.885 77.6754 112.786 83.38 112.778L83.4488 46.4903C88.9371 46.2872 122.286 45.9822 124.9 47.3592L124.509 47.7614C120.052 49.5062 92.3692 48.7896 85.6881 48.7927C85.5396 70.1226 85.5782 91.453 85.8033 112.782C99.6095 112.973 113.849 112.824 127.686 112.83L134.681 112.834C134.712 109.392 134.153 99.263 135.233 96.7194L136.629 96.5167L135.363 96.4654L136.654 96.6764C137.025 101.803 137.394 132.181 136.441 136.162L135.966 136.418C133.881 133.818 134.665 124.195 134.696 120.563L85.5699 120.576C85.5748 125.948 85.9518 150.573 85.1065 154.052L84.4474 154.027C82.6686 149.743 83.3849 126.992 83.3849 120.593C77.733 120.477 71.6725 120.608 65.9889 120.628L66.0064 210.438C71.7779 210.528 77.5504 210.561 83.3224 210.536C83.4513 205.449 83.0318 180.158 84.0094 177.201C84.0572 177.242 84.11 177.277 84.152 177.323C86.6207 180.029 85.4537 205.084 85.4444 210.484C88.5362 210.608 97.1812 209.913 99.2945 211.314C99.0392 212.325 98.2926 212.892 97.1866 212.827C86.5489 212.197 74.8326 213.465 64.2994 212.821C53.4737 212.159 36.8888 214.188 26.8563 212.282L26.563 211.782C28.6665 210.025 36.1795 210.52 39.3364 210.515C39.6792 203.546 39.443 194.623 39.4453 187.541L39.4271 143.606L39.4654 23.9309C35.5223 23.7045 30.7128 24.5524 27.0408 23.3324C26.6561 23.2046 26.3862 22.1608 26.1802 21.6362Z" fill="black"/>
<path d="M248.94 263.98C262.542 263.531 289.603 260.555 285.103 284.191C284.195 288.958 280.051 292.076 276.028 294.396C278.944 299.427 283.437 305.141 286.911 310.044C284.506 310.126 281.607 310 279.162 309.955C276.206 305.062 272.677 300.209 269.304 295.604C264.744 295.41 259.183 295.534 254.544 295.509C254.685 300.542 254.622 304.94 254.466 309.977L248.028 310.08L247.951 281.094C247.939 276.283 247.729 269.089 248.092 264.461L248.94 263.98ZM254.525 290.017C260.943 290.083 270.384 290.963 275.585 287.472C279.176 283.362 281.168 277.272 276.315 273.295C270.5 268.529 261.788 269.484 254.806 269.598C254.343 275.995 254.52 283.523 254.525 290.017Z" fill="black"/>
<path d="M187.846 263.925C188.712 263.922 193.07 263.779 193.493 264.613C201.045 279.524 207.816 294.895 214.99 310.011L207.343 310.055C205.862 305.737 204.487 302.617 202.594 298.448L192.993 298.617C187.935 298.56 182.575 298.73 177.494 298.808C175.847 302.543 174.174 306.267 172.477 309.979L165.554 310C171.14 295.641 179.287 281.029 185.21 266.656C185.92 264.933 186.164 264.517 187.846 263.925ZM179.97 293.409L191.528 293.3L200.229 293.397C198.771 290.148 191.451 272.463 189.659 270.884L179.97 293.409Z" fill="black"/>
<path d="M590.757 263.906C600.195 263.367 613.53 263.804 623.105 263.953L623.061 269.725L597.334 269.773C597.109 273.975 597.241 279.286 597.236 283.572C604.219 283.246 613.452 283.62 620.547 283.72L620.561 289.283C613.813 289.41 606.885 289.382 600.122 289.424L598.188 289.483C596.733 291.293 597.397 301.296 597.417 304.245C606.387 304.152 615.503 304.242 624.487 304.249L624.536 310.066L590.371 310.107C590.356 305.356 589.863 265.807 590.757 263.906Z" fill="black"/>
<path d="M430.526 264.111L437.301 264.131C437.038 274.616 437.428 285.406 437.288 295.903C437.246 299.034 437.495 307.525 436.907 310.049L430.617 310.028L430.526 289.337C422.247 289.079 412.104 289.155 403.801 289.343C403.909 296.157 403.826 303.223 403.834 310.057L397.415 310.106L397.404 264.178C399.11 264.045 401.989 264.176 403.79 264.209C403.887 270.525 403.843 277.018 403.866 283.348C412.289 283.091 421.951 283.347 430.467 283.373C430.228 277.566 430.491 270.048 430.526 264.111Z" fill="black"/>
<path d="M813.105 263.399C820.615 262.979 825.356 263.991 831.816 267.813C831.064 269.599 830.205 271.198 829.307 272.91C810.967 261.164 791.392 279.641 820.308 284.743C830.688 286.575 838.862 295.435 830.972 305.27C827.471 309.636 820.864 310.318 815.688 310.705C807.773 310.212 804.067 309.359 797.979 304.511L800.757 299.297C801.045 299.601 801.357 299.883 801.689 300.141C806.675 304.083 826.641 309.764 827.471 297.093C824.941 289.791 808.955 289.892 804.18 285.81C793.472 276.652 800.205 265.984 813.105 263.399Z" fill="black"/>
<path d="M342.779 263.417C349.945 263.259 357.053 265.273 361.849 270.864L357.294 274.762C347.924 266.652 332.67 267.311 327.489 279.364C325.588 283.855 325.551 288.918 327.385 293.436C331.812 304.237 342.465 306.96 352.734 302.724C354.176 301.829 356.29 300.079 357.688 298.981L361.848 303.082C353.05 312.412 337.797 313.303 327.877 305.352C323.074 301.507 320.018 295.889 319.401 289.766C317.734 274.389 328.217 264.881 342.779 263.417Z" fill="black"/>
<path d="M679.707 263.393C679.956 263.377 680.21 263.363 680.459 263.354C688.106 263.031 694.126 265.568 699.688 270.664C698.379 271.79 696.695 273.507 695.41 274.739C686.309 266.233 671.016 267.569 665.694 279.115C663.672 283.546 663.496 288.601 665.21 293.162C666.807 297.547 670.093 301.111 674.331 303.06C679.619 305.455 684.854 304.946 690.142 302.967C692.486 301.71 693.516 300.75 695.542 299.007L700.108 302.895C691.143 311.937 677.315 313.705 666.939 305.941C661.802 302.111 658.404 296.393 657.495 290.051C655.445 275.274 665.63 265.219 679.707 263.393Z" fill="black"/>
<path d="M519.238 263.861C531.538 263.653 543.843 263.723 556.143 264.07L556.162 269.751L540.464 269.719L540.469 295.925L540.391 310.068L533.696 310.056L533.672 269.603C528.75 269.831 523.008 269.651 518.018 269.604C517.9 267.698 517.686 266.192 518.232 264.352L519.238 263.861Z" fill="black"/>
<path d="M729.468 263.915C739.976 263.408 757.144 263.666 767.681 264.078C767.705 265.927 767.651 267.913 767.637 269.775L751.953 269.747L751.924 295.606L751.885 310.064L745.107 310.125L745.083 269.662L729.546 269.674L729.468 263.915Z" fill="black"/>
<path d="M476.94 264.129L483.445 264.131C483.574 279.442 483.555 294.753 483.388 310.063L476.937 310.146C476.797 294.807 476.798 279.468 476.94 264.129Z" fill="black"/>
</svg>
