<svg width="28" height="20" viewBox="0 0 28 20" fill="none" xmlns="http://www.w3.org/2000/svg">
<path d="M16.0834 2.70564C15.9299 2.5626 15.8068 2.39009 15.7214 2.19843C15.636 2.00676 15.59 1.79986 15.5863 1.59006C15.5826 1.38027 15.6212 1.17187 15.6998 0.977313C15.7784 0.782755 15.8954 0.606018 16.0437 0.457645C16.1921 0.309273 16.3689 0.192305 16.5634 0.113719C16.758 0.035134 16.9664 -0.00345846 17.1762 0.000243172C17.386 0.00394481 17.5929 0.0498647 17.7845 0.135265C17.9762 0.220664 18.1487 0.343794 18.2917 0.497308L26.6251 8.83064C26.9177 9.12361 27.082 9.52074 27.082 9.93481C27.082 10.3489 26.9177 10.746 26.6251 11.039L18.2917 19.3723C18.1487 19.5258 17.9762 19.649 17.7845 19.7344C17.5929 19.8198 17.386 19.8657 17.1762 19.8694C16.9664 19.8731 16.758 19.8345 16.5634 19.7559C16.3689 19.6773 16.1921 19.5603 16.0437 19.412C15.8954 19.2636 15.7784 19.0869 15.6998 18.8923C15.6212 18.6977 15.5826 18.4894 15.5863 18.2796C15.59 18.0698 15.636 17.8629 15.7214 17.6712C15.8068 17.4795 15.9299 17.307 16.0834 17.164L21.7501 11.4973H1.56257C1.14817 11.4973 0.750744 11.3327 0.457718 11.0397C0.164692 10.7466 7.43866e-05 10.3492 7.43866e-05 9.93481C7.43866e-05 9.52041 0.164692 9.12298 0.457718 8.82996C0.750744 8.53693 1.14817 8.37231 1.56257 8.37231H21.7501L16.0834 2.70564Z" fill="#52607A"/>
</svg>
