<svg width="15" height="16" viewBox="0 0 15 16" fill="none" xmlns="http://www.w3.org/2000/svg">
<g clip-path="url(#clip0_72_10)">
<path d="M2.98856 15.3307C2.03919 15.3307 1.26953 14.5304 1.26953 13.5422V6.35392C1.26953 5.81084 1.50728 5.29634 1.91427 4.95742L6.64261 1.02272C6.94471 0.769211 7.32466 0.630493 7.7169 0.630493C8.10914 0.630493 8.48909 0.769211 8.79119 1.02272L13.5187 4.95742C13.9265 5.29634 14.1643 5.81084 14.1643 6.35392V13.5422C14.1643 14.5304 13.3946 15.3307 12.4452 15.3307H2.98856Z" stroke="currentColor" stroke-width="1.25" stroke-linecap="round" stroke-linejoin="round"/>
<path d="M5.70215 15.3305V10.8388C5.70215 10.4057 5.87197 9.99021 6.17425 9.6839C6.47653 9.37759 6.8865 9.20551 7.31399 9.20551H8.11991C8.5474 9.20551 8.95738 9.37759 9.25966 9.6839C9.56193 9.99021 9.73175 10.4057 9.73175 10.8388V15.3305" stroke="currentColor" stroke-width="1.25" stroke-linecap="round" stroke-linejoin="round"/>
</g>
<defs>
<clipPath id="clip0_72_10">
<rect width="15" height="16" fill="white"/>
</clipPath>
</defs>
</svg>
