<svg width="88" height="88" viewBox="0 0 88 88" fill="none" xmlns="http://www.w3.org/2000/svg">
<path d="M58.8844 79.0028C59.9156 77.9714 60.4949 76.5726 60.4949 75.1141C60.4949 73.6556 59.9156 72.2569 58.8844 71.2254L31.6594 44.0004L58.8844 16.7754C59.8548 15.7331 60.383 14.355 60.3579 12.9311C60.3329 11.5072 59.7565 10.1485 58.75 9.14093C57.7436 8.13337 56.3855 7.55547 54.9617 7.52883C53.5378 7.50219 52.1591 8.02889 51.1157 8.9981L19.9977 40.1075C18.9665 41.1389 18.3872 42.5377 18.3872 43.9961C18.3872 45.4546 18.9665 46.8534 19.9977 47.8848L51.1071 79.0028C52.1385 80.034 53.5373 80.6133 54.9958 80.6133C56.4542 80.6133 57.853 80.034 58.8844 79.0028Z" fill="#29303D"/>
</svg>
